<?xml version="1.0" encoding="UTF-8"?>
<svg width="316px" height="316px" viewBox="0 0 316 316" version="1.1" xmlns="http://www.w3.org/2000/svg" xmlns:xlink="http://www.w3.org/1999/xlink">
    <!-- Generator: Sketch 47.1 (45422) - http://www.bohemiancoding.com/sketch -->
    <title>logo</title>
    <desc>Created with Sketch.</desc>
    <defs></defs>
    <g id="Onderdeel_#2.1:-Eindresultaat-interface" stroke="none" stroke-width="1" fill="none" fill-rule="evenodd">
        <g id="style-guide" transform="translate(-110.000000, -165.000000)">
            <g id="logo" transform="translate(109.843750, 164.499469)">
                <rect id="Rectangle-4" fill="#34495E" x="0.5" y="0.703125" width="295" height="295" rx="51"></rect>
                <path d="M122.083959,69.2333133 L179.468801,69.2333133 C194.717211,69.2333133 210.529531,89.4807373 214.786606,114.457201 L233.439939,223.897207 C237.697014,248.87367 221.306713,269.121094 196.831176,269.121094 L104.721584,269.121094 C80.2460478,269.121094 63.8557462,248.87367 68.1128211,223.897207 L86.7661546,114.457201 C91.0232295,89.4807373 106.835549,69.2333133 122.083959,69.2333133 Z" id="Rectangle" fill="#FFFFFF"></path>
                <path d="M211.474563,116.279261 C211.474563,82.0704912 184.299061,54.3388039 150.77638,54.3388039 C117.2537,54.3388039 90.0781979,82.0704912 90.0781979,116.279261 C90.0781979,150.488031 211.474563,150.488031 211.474563,116.279261 Z" id="Oval" fill="#FFFFFF"></path>
                <path d="M150.77638,259.610257 C181.718994,259.610257 206.679515,257.184667 206.679515,225.608768 C206.679515,194.03287 182.147795,189.615588 151.205181,189.615588 C120.262567,189.615588 94.8732451,194.03287 94.8732451,225.608768 C94.8732451,257.184667 119.833766,259.610257 150.77638,259.610257 Z" id="Oval-2" fill="#34495E"></path>
                <path d="M150.77638,246.297423 C169.018316,246.297423 183.733564,244.867438 183.733564,226.252155 C183.733564,207.636872 169.271112,205.032704 151.029176,205.032704 C132.78724,205.032704 117.819197,207.636872 117.819197,226.252155 C117.819197,244.867438 132.534444,246.297423 150.77638,246.297423 Z" id="Oval-2" fill="#FFFFFF"></path>
                <polygon id="Rectangle-2" fill="#D2527F" points="244.293951 64.9238281 249.560322 69.0307481 155.156995 198.678009 149.890625 194.571089"></polygon>
                <ellipse id="Oval-3" fill="#D2527F" cx="249.560322" cy="65.5783133" rx="28.2335111" ry="28.8113502"></ellipse>
                <ellipse id="Oval-3" fill="#34495E" cx="249.560322" cy="65.5783133" rx="17.4565117" ry="17.8137841"></ellipse>
                <ellipse id="Oval-4" fill="#ECF0F1" cx="150.847091" cy="188.32283" rx="4.41550239" ry="4.50587194"></ellipse>
                <polygon id="Rectangle-3" fill="#34495E" points="146.431588 89.9964327 155.121172 89.9964327 155.121172 169.721615 155.121172 185.26095 155.121172 205.032704 146.431588 205.032704"></polygon>
                <polygon id="Rectangle-3" fill="#34495E" points="171.065648 94.3972406 171.065648 103.26467 130.628533 103.26467 130.628533 94.3972406"></polygon>
                <path d="M150.780093,94.3972406 C153.181706,94.3972406 155.128597,92.4105029 155.128597,89.9597376 C155.128597,87.5089724 153.181706,85.5222346 150.780093,85.5222346 C148.37848,85.5222346 146.431588,87.5089724 146.431588,89.9597376 C146.431588,92.4105029 148.37848,94.3972406 150.780093,94.3972406 Z" id="Oval-5" fill="#34495E"></path>
                <path d="M171.635095,103.26467 C174.036708,103.26467 175.983599,101.277932 175.983599,98.8271665 C175.983599,96.3764013 174.036708,94.3896635 171.635095,94.3896635 C169.233482,94.3896635 167.28659,96.3764013 167.28659,98.8271665 C167.28659,101.277932 169.233482,103.26467 171.635095,103.26467 Z" id="Oval-5" fill="#34495E"></path>
                <path d="M161.498745,160.946039 C163.900358,160.946039 165.84725,158.959301 165.84725,156.508536 C165.84725,154.05777 163.900358,152.071033 161.498745,152.071033 C159.097133,152.071033 157.150241,154.05777 157.150241,156.508536 C157.150241,158.959301 159.097133,160.946039 161.498745,160.946039 Z" id="Oval-5" fill="#34495E"></path>
                <path d="M167.457756,131.683523 C169.859368,131.683523 171.80626,129.696786 171.80626,127.24602 C171.80626,124.795255 169.859368,122.808517 167.457756,122.808517 C165.056143,122.808517 163.109251,124.795255 163.109251,127.24602 C163.109251,129.696786 165.056143,131.683523 167.457756,131.683523 Z" id="Oval-5" fill="#34495E"></path>
                <path d="M140.054015,160.946039 C142.455628,160.946039 144.40252,158.959301 144.40252,156.508536 C144.40252,154.05777 142.455628,152.071033 140.054015,152.071033 C137.652402,152.071033 135.70551,154.05777 135.70551,156.508536 C135.70551,158.959301 137.652402,160.946039 140.054015,160.946039 Z" id="Oval-5" fill="#34495E"></path>
                <path d="M130.628533,103.272247 C133.030146,103.272247 134.977037,101.285509 134.977037,98.8347437 C134.977037,96.3839784 133.030146,94.3972406 130.628533,94.3972406 C128.22692,94.3972406 126.280028,96.3839784 126.280028,98.8347437 C126.280028,101.285509 128.22692,103.272247 130.628533,103.272247 Z" id="Oval-5" fill="#34495E"></path>
                <path d="M134.977037,131.683523 C137.37865,131.683523 139.325542,129.696786 139.325542,127.24602 C139.325542,124.795255 137.37865,122.808517 134.977037,122.808517 C132.575425,122.808517 130.628533,124.795255 130.628533,127.24602 C130.628533,129.696786 132.575425,131.683523 134.977037,131.683523 Z" id="Oval-5" fill="#ECF0F1"></path>
                <path d="M134.236425,131.728337 C136.638038,131.728337 138.58493,129.741599 138.58493,127.290834 C138.58493,124.840069 136.638038,122.853331 134.236425,122.853331 C131.834813,122.853331 129.887921,124.840069 129.887921,127.290834 C129.887921,129.741599 131.834813,131.728337 134.236425,131.728337 Z" id="Oval-5" fill="#34495E"></path>
                <polygon id="Rectangle-3" fill="#34495E" points="167.457756 122.853331 167.457756 131.72076 134.236425 131.72076 134.236425 122.853331"></polygon>
                <polygon id="Rectangle-3" fill="#34495E" points="161.498745 152.071033 161.498745 160.938462 140.054015 160.938462 140.054015 152.071033"></polygon>
            </g>
        </g>
    </g>
</svg>